<?xml version="1.0" encoding="utf-8"?>
<!-- Generator: Adobe Illustrator 18.0.0, SVG Export Plug-In . SVG Version: 6.00 Build 0)  -->
<!DOCTYPE svg PUBLIC "-//W3C//DTD SVG 1.1//EN" "http://www.w3.org/Graphics/SVG/1.1/DTD/svg11.dtd">
<svg version="1.1" id="Layer_1" xmlns="http://www.w3.org/2000/svg" xmlns:xlink="http://www.w3.org/1999/xlink" x="0px" y="0px"
	 viewBox="0 0 40.4 77.7" enable-background="new 0 0 40.4 77.7" xml:space="preserve">
<path fill="#1A92B2" d="M31,77.7C-14.3,64.7-5,20,27,3.7c25.7-13-25.7,9.7-23.3,40.5C5.4,65.8,31,77.7,31,77.7z"/>
<path fill="#1A92B2" d="M38.1,66.8c-32.6-9.4-25.9-41.6-2.9-53.3c18.5-9.3-18.5,7-16.8,29.1C19.6,58.2,38.1,66.8,38.1,66.8z"/>
<path fill="#1A92B2" d="M38.9,56.4C18.5,50.6,22.6,30.3,37.1,23c11.6-5.9-11.6,4.4-10.5,18.3C27.3,51,38.9,56.4,38.9,56.4z"/>
</svg>
