<?xml version="1.0" encoding="utf-8"?>
<!-- Generator: Adobe Illustrator 18.0.0, SVG Export Plug-In . SVG Version: 6.00 Build 0)  -->
<!DOCTYPE svg PUBLIC "-//W3C//DTD SVG 1.1//EN" "http://www.w3.org/Graphics/SVG/1.1/DTD/svg11.dtd">
<svg version="1.1" xmlns="http://www.w3.org/2000/svg" xmlns:xlink="http://www.w3.org/1999/xlink" x="0px" y="0px"
	 viewBox="0 0 241.4 295.1" enable-background="new 0 0 241.4 295.1" xml:space="preserve">
<g id="Layer_1">
	<path fill="#FECF8F" d="M15.6,211.5C-49.4-75,110.1,12.6,110.1,12.6s141.8,135.2,130.8,198.9s-57.1,81.3-113.2,83.5
		C71.6,297.2,19.9,230.9,15.6,211.5z"/>
</g>
<g id="Layer_2">
	<path fill="#EAB16C" d="M36.7,5.5c84,201.7,153.2,277,153.2,277L36.7,5.5z"/>
</g>
<g id="Layer_3">
	<path fill="#5E4735" d="M20.4,94.6c7.5-11.2,18.9,5.2,11.1,9.1C23.7,107.7,15.2,102.4,20.4,94.6z"/>
	<path fill="#5E4735" d="M122.3,52.9c7.5-11.2,18.9,5.2,11.1,9.1S117.1,60.7,122.3,52.9z"/>
</g>
<g id="Layer_4">
	<path fill="#5E4735" d="M79.8,118.6c0,0,23.5,8.4,25-13.5S79.8,118.6,79.8,118.6z"/>
</g>
</svg>
