<?xml version="1.0" encoding="utf-8"?>
<!-- Generator: Adobe Illustrator 18.0.0, SVG Export Plug-In . SVG Version: 6.00 Build 0)  -->
<!DOCTYPE svg PUBLIC "-//W3C//DTD SVG 1.1//EN" "http://www.w3.org/Graphics/SVG/1.1/DTD/svg11.dtd">
<svg version="1.1" id="Layer_1" xmlns="http://www.w3.org/2000/svg" xmlns:xlink="http://www.w3.org/1999/xlink" x="0px" y="0px"
	 viewBox="0 0 201.2 752.5" enable-background="new 0 0 201.2 752.5" xml:space="preserve">
<path fill="#F2CCAA" d="M7.3,102.4c18.1-6.8,21.2,33.5,34.4,33.5S1,73.5,27.5,68.6s19.8,50.4,40,50.4S27.1,53.8,56.2,46.6
	s19,64,39.2,56.7s-27.8-74.8,0-86.9s8.8,71.2,34.1,70c25.3-1.2-24-64,10.1-83.3s15.2,56.7,26.5,73.6c11.4,16.9,11.4,45.9,10.1,62.8
	c-1.3,16.9-2.1,197.2,11.8,228.6s-8,73.2-8,85.3s18.5,285.2,21.1,293.6c2.5,8.5-152.7,4.7-152.7,4.7s25.4-285.8,22-333.8
	c-3.4-47.9-1.7-58.5-21.9-139.2c-8.4-33.4-28.7-66.9-29.5-95C18,147.4-14,110.4,7.3,102.4"/>
<path fill="#FEEAD9" d="M133.4,14c0,0,1,10.7,3.5,13.2c2.5,2.6,18.2-4.8,18.2-4.8V7.1C155.1,7.1,147.5-3.4,133.4,14z"/>
<path fill="#FEEAD9" d="M3.2,110.6c0,0,2.8-6.1,11-5l1.4,7.3c0,0-7.6,6.1-9.3,4.3"/>
<path fill="#FEEAD9" d="M90.1,25.8c0,0,1.6,8.6,3.2,9.7c1.6,1.1,12.2-3.8,12.2-3.8V21.5C105.5,21.5,94.9,15.6,90.1,25.8z"/>
<path fill="#FEEAD9" d="M68,59l-11.7,4.5c0,0-2.7-2.6-4.5-7.2c-1.5-3.9,9.3-9.7,13.8-5.9"/>
<path fill="#FEEAD9" d="M22.9,80.3c0,0,3.3,5.3,5.7,5.3s9.4-5.4,9.4-5.4l-3.2-8.3C34.7,71.9,22.5,71.2,22.9,80.3z"/>
</svg>
