<?xml version="1.0" encoding="utf-8"?>
<!-- Generator: Adobe Illustrator 18.0.0, SVG Export Plug-In . SVG Version: 6.00 Build 0)  -->
<!DOCTYPE svg PUBLIC "-//W3C//DTD SVG 1.1//EN" "http://www.w3.org/Graphics/SVG/1.1/DTD/svg11.dtd">
<svg version="1.1" xmlns="http://www.w3.org/2000/svg" xmlns:xlink="http://www.w3.org/1999/xlink" x="0px" y="0px"
	 viewBox="0 0 201.2 752.5" enable-background="new 0 0 201.2 752.5" xml:space="preserve">
<g id="Layer_1">
	<path fill="#F2CCAA" d="M7.3,102.4c18.1-6.8,21.2,33.5,34.4,33.5S1,73.5,27.5,68.6s19.8,50.4,40,50.4S27.1,53.8,56.2,46.6
		s19,64,39.2,56.7s-27.8-74.8,0-86.9s8.8,71.2,34.1,70c25.3-1.2-24-64,10.1-83.3s15.2,56.7,26.5,73.6c11.4,16.9,11.4,45.9,10.1,62.8
		c-1.3,16.9-2.1,197.2,11.8,228.6s-8,73.2-8,85.3s18.5,285.2,21.1,293.6c2.5,8.5-152.7,4.7-152.7,4.7s25.4-285.8,22-333.8
		c-3.4-47.9-1.7-58.5-21.9-139.2c-8.4-33.4-28.7-66.9-29.5-95C18,147.4-14,110.4,7.3,102.4"/>
	<path fill="#FEEAD9" d="M133.4,14c0,0,1,10.7,3.5,13.2c2.5,2.6,18.2-4.8,18.2-4.8V7.1C155.1,7.1,147.5-3.4,133.4,14z"/>
	<path fill="#FEEAD9" d="M3.2,110.6c0,0,2.8-6.1,11-5l1.4,7.3c0,0-7.6,6.1-9.3,4.3"/>
	<path fill="#FEEAD9" d="M90.1,25.8c0,0,1.6,8.6,3.2,9.7c1.6,1.1,12.2-3.8,12.2-3.8V21.5C105.5,21.5,94.9,15.6,90.1,25.8z"/>
	<path fill="#FEEAD9" d="M68,59l-11.7,4.5c0,0-2.7-2.6-4.5-7.2c-1.5-3.9,9.3-9.7,13.8-5.9"/>
	<path fill="#FEEAD9" d="M22.9,80.3c0,0,3.3,5.3,5.7,5.3s9.4-5.4,9.4-5.4l-3.2-8.3C34.7,71.9,22.5,71.2,22.9,80.3z"/>
	<path fill="#9B735A" d="M41.1,690.8c26.1,8.3,31.3,1.5,31.3,1.5L41.1,690.8z"/>
	<path fill="#754F35" d="M65.8,725.6c0,0,7.1-14.8,15.7-18.3S65.8,725.6,65.8,725.6z"/>
	<path fill="#754F35" d="M41.5,657.7c0,0,15.3-7.8,24.2-18.7C72.1,631,41.5,657.7,41.5,657.7z"/>
	<path fill="#754F35" d="M72.1,666.3c-10-5.3-23.3,0-23.3,0H72.1z"/>
	<path fill="#754F35" d="M81.6,654.3c0,0,16.1,12.2,14.3,17.2S81.6,654.3,81.6,654.3z"/>
	<path fill="#9B735A" d="M143.1,703c0,0,14.7-6.4,17.4-12.2C163.2,685,143.1,703,143.1,703z"/>
	<path fill="#754F35" d="M196.8,582.2c-16.8,21.6-12.1,29-12.1,29L196.8,582.2z"/>
	<path fill="#754F35" d="M181,634.1c11.2-1.5,18.9-13.7,18.9-13.7L181,634.1z"/>
	<path fill="#9B735A" d="M200.2,692.9c0,0-11.2,13.1-15.2,26.5C182,729.2,200.2,692.9,200.2,692.9z"/>
	<path fill="#754F35" d="M177.7,650.5c0,0,4.2,15.9-0.1,24.1C173.3,682.9,177.7,650.5,177.7,650.5z"/>
	<path fill="#754F35" d="M43.1,724.2c23.5,14,21.9,22.5,21.9,22.5L43.1,724.2z"/>
	<path fill="#754F35" d="M55.8,601.8C81.3,611.9,81,620.5,81,620.5L55.8,601.8z"/>
	<path fill="#754F35" d="M76.5,581.9c0,0,6.7,14.6,12.5,17.2C94.8,601.6,76.5,581.9,76.5,581.9z"/>
	<path fill="#754F35" d="M100.6,691.7c10-5.4,12.8-19.5,12.8-19.5L100.6,691.7z"/>
	<path fill="#754F35" d="M190.6,553.9c2.4,21.4-6,28.3-6,28.3L190.6,553.9z"/>
	<path fill="#754F35" d="M103.4,716.3c2.4,21.4-6,28.3-6,28.3L103.4,716.3z"/>
	<path fill="#9B735A" d="M125.5,702.1c5.9,25.4,14.5,28.4,14.5,28.4L125.5,702.1z"/>
	<path fill="#754F35" d="M77.9,543.5c0,0,10.6,13.6,22.9,20.2C109.9,568.5,77.9,543.5,77.9,543.5z"/>
	<path fill="#9B735A" d="M60.8,545.4c0,0,9.7,13.2,8.7,22.5C68.5,577.1,60.8,545.4,60.8,545.4z"/>
	<path fill="#9B735A" d="M160.8,619.1c9.1-6.7,10.1-21,10.1-21L160.8,619.1z"/>
	<path fill="#9B735A" d="M188.5,507.5c-12.5,22.9-8,30.8-8,30.8L188.5,507.5z"/>
	<path fill="#9B735A" d="M121.6,530.2c0,0-10.3,17.4-15.5,16.2S121.6,530.2,121.6,530.2z"/>
	<path fill="#9B735A" d="M106.9,611.7c0,0-6.9,15.8-6.8,29.8C100.2,651.8,106.9,611.7,106.9,611.7z"/>
	<path fill="#754F35" d="M132.1,611.6c0,0-12.2,10.4-13.1,16.7S132.1,611.6,132.1,611.6z"/>
	<path fill="#754F35" d="M134,641.5c9.6,25.6,18.2,25.5,18.2,25.5L134,641.5z"/>
	<path fill="#754F35" d="M155.7,746.5c9.1-6.7,10-21.1,10-21.1L155.7,746.5z"/>
	<path fill="#754F35" d="M172,491.9c11.2-1.7,18.7-14,18.7-14L172,491.9z"/>
	<path fill="#754F35" d="M74.5,516.3c13.7-0.7-14.1-5.2-14.1-5.3L74.5,516.3z"/>
	<path fill="#754F35" d="M158.4,483l-5.4,14.1C153.7,510.8,158.3,483,158.4,483"/>
	<path fill="#754F35" d="M149.7,583l-6.5,13.6C142.6,610.3,149.5,583,149.7,583"/>
	<path fill="#754F35" d="M106,582.4c0,0,12,2,13.6,5.9C121.3,592.3,106,582.4,106,582.4z"/>
	<path fill="#9B735A" d="M100.8,493.6c0,0,7.3,9.7,5.9,13.7S100.8,493.6,100.8,493.6z"/>
	<path fill="#754F35" d="M155.7,538.2c0,0,0.1,17.2,5.9,30C165.8,577.6,155.7,538.2,155.7,538.2z"/>
	<path fill="#9B735A" d="M65.9,474.4c0,0,1.6,16,6.3,20.3S65.9,474.4,65.9,474.4z"/>
</g>
<g id="Layer_2">
</g>
</svg>
