<?xml version="1.0" encoding="utf-8"?>
<!-- Generator: Adobe Illustrator 18.0.0, SVG Export Plug-In . SVG Version: 6.00 Build 0)  -->
<!DOCTYPE svg PUBLIC "-//W3C//DTD SVG 1.1//EN" "http://www.w3.org/Graphics/SVG/1.1/DTD/svg11.dtd">
<svg version="1.1" xmlns="http://www.w3.org/2000/svg" xmlns:xlink="http://www.w3.org/1999/xlink" x="0px" y="0px"
	 viewBox="0 0 201.5 747.7" enable-background="new 0 0 201.5 747.7" xml:space="preserve">
<g id="Layer_1">
	<path fill="#F2CCAA" d="M137,409.5c3.4-47.9-6.2-50.8,14-131.5c8.4-33.4,27.6-80.3,32.2-109.5c5.7-35.9,27.9-56.3,13.7-69.3
		c-14.1-12.9-25.1,42.8-34.4,33.5c-9.3-9.3,31.4-59.2,10-67.5c-25.1-9.8-15.6,51-35.8,50.6c-21.1-0.4,24.3-61.2,6.2-75.1
		c-24.4-18.8-19.2,61.3-34,59.4c-21.3-2.7,26-81.2-3.8-87C81.1,8.7,92.5,82.5,74.7,83.3C49.4,84.5,97.8-0.3,64.5,0
		C23.9,0.3,47,61,35.6,77.9s-9,41.6-7.7,58.5S24.3,314.5,9.3,340.3c-28.4,48.8,17.4,75.1,16.6,102.5C25.6,454.8,9.3,735.4,6.7,743.9
		c-2.5,8.5,149.3,0.3,149.3,0.3S133.6,457.4,137,409.5z"/>
	<path fill="#FEEAD9" d="M73.2,10.1c0,0-1,11.6-3.5,14.1c-2.5,2.6-19.5-2.5-19.5-2.5V8.4C50.1,8.4,64.5-2.9,73.2,10.1z"/>
	<path fill="#FEEAD9" d="M187.9,102.4l-1.5,7.2c0,0,7.7,4.3,8.9,2.4s3.3-5.9,3.3-5.9S194,97.6,187.9,102.4z"/>
	<path fill="#FEEAD9" d="M111.9,21.1c0,0-1.3,8.2-2.8,9.3c-1.6,1.1-12.6-2-12.6-2l0.7-9.3C97.2,19.1,105.1,13,111.9,21.1z"/>
	<path fill="#FEEAD9" d="M130.7,51.6l10.3,2.7c0,0,1.8-1.6,3.7-6.5c1.6-4.1-8.4-9.4-13.1-5.4"/>
	<path fill="#FEEAD9" d="M175.6,72.9c0,0-2.3,5.4-4.6,5.8c-2.3,0.5-10.1-2.8-10.1-2.8l1.7-7.9C162.6,67.9,174.3,64.8,175.6,72.9z"/>
</g>
<g id="Layer_2">
	<path fill="#9B735A" d="M167,684.1c-26.1,8.3-31.3,1.5-31.3,1.5L167,684.1z"/>
	<path fill="#754F35" d="M142.4,719c0,0-7.1-14.8-15.7-18.3C118.1,697.2,142.4,719,142.4,719z"/>
	<path fill="#754F35" d="M166.7,651c0,0-15.3-7.8-24.2-18.7C136,624.3,166.7,651,166.7,651z"/>
	<path fill="#754F35" d="M136,659.7c10-5.3,23.3,0,23.3,0H136z"/>
	<path fill="#754F35" d="M126.6,647.6c0,0-16.1,12.2-14.3,17.2C114.1,669.9,126.6,647.6,126.6,647.6z"/>
	<path fill="#9B735A" d="M65.1,696.3c0,0-14.7-6.4-17.4-12.2C45,678.3,65.1,696.3,65.1,696.3z"/>
	<path fill="#754F35" d="M11.4,575.5c16.8,21.6,12.1,29,12.1,29L11.4,575.5z"/>
	<path fill="#754F35" d="M27.2,627.5c-11.2-1.5-18.9-13.7-18.9-13.7L27.2,627.5z"/>
	<path fill="#9B735A" d="M8,686.2c0,0,11.2,13.1,15.2,26.5C26.1,722.6,8,686.2,8,686.2z"/>
	<path fill="#754F35" d="M30.4,643.9c0,0-4.2,15.9,0.1,24.1C34.9,676.2,30.4,643.9,30.4,643.9z"/>
	<path fill="#754F35" d="M165.1,717.5c-23.5,14-21.9,22.5-21.9,22.5L165.1,717.5z"/>
	<path fill="#754F35" d="M152.3,595.1c-25.4,10.1-25.2,18.7-25.2,18.7L152.3,595.1z"/>
	<path fill="#754F35" d="M131.7,575.2c0,0-6.7,14.6-12.5,17.2C113.3,595,131.7,575.2,131.7,575.2z"/>
	<path fill="#754F35" d="M107.6,685.1c-10-5.4-12.8-19.5-12.8-19.5L107.6,685.1z"/>
	<path fill="#754F35" d="M17.5,547.2c-2.4,21.4,6,28.3,6,28.3L17.5,547.2z"/>
	<path fill="#754F35" d="M104.8,709.6c-2.4,21.4,6,28.3,6,28.3L104.8,709.6z"/>
	<path fill="#9B735A" d="M82.6,695.4c-5.9,25.4-14.5,28.4-14.5,28.4L82.6,695.4z"/>
	<path fill="#754F35" d="M130.3,536.8c0,0-10.6,13.6-22.9,20.2C98.3,561.9,130.3,536.8,130.3,536.8z"/>
	<path fill="#9B735A" d="M147.4,538.8c0,0-9.7,13.2-8.7,22.5S147.4,538.8,147.4,538.8z"/>
	<path fill="#9B735A" d="M47.4,612.5c-9.1-6.7-10.1-21-10.1-21L47.4,612.5z"/>
	<path fill="#9B735A" d="M19.7,500.8c12.5,22.9,8,30.8,8,30.8L19.7,500.8z"/>
	<path fill="#9B735A" d="M86.6,523.5c0,0,10.3,17.4,15.5,16.2S86.6,523.5,86.6,523.5z"/>
	<path fill="#9B735A" d="M101.3,605c0,0,6.9,15.8,6.8,29.8C108,645.1,101.3,605,101.3,605z"/>
	<path fill="#754F35" d="M76.1,604.9c0,0,12.2,10.4,13.1,16.7S76.1,604.9,76.1,604.9z"/>
	<path fill="#754F35" d="M74.2,634.8C64.6,660.5,56,660.4,56,660.4L74.2,634.8z"/>
	<path fill="#754F35" d="M52.4,739.8c-9.1-6.7-10-21.1-10-21.1L52.4,739.8z"/>
	<path fill="#754F35" d="M36.2,485.2c-11.2-1.7-18.7-14-18.7-14L36.2,485.2z"/>
	<path fill="#754F35" d="M133.6,509.7c-13.7-0.7,14.1-5.2,14.1-5.3L133.6,509.7z"/>
	<path fill="#754F35" d="M49.7,476.3l5.4,14.1C54.5,504.1,49.9,476.3,49.7,476.3"/>
	<path fill="#754F35" d="M58.5,576.3l6.5,13.6C65.6,603.6,58.6,576.3,58.5,576.3"/>
	<path fill="#754F35" d="M102.2,575.8c0,0-12,2-13.6,5.9S102.2,575.8,102.2,575.8z"/>
	<path fill="#9B735A" d="M107.3,486.9c0,0-7.3,9.7-5.9,13.7C103,504.6,107.3,486.9,107.3,486.9z"/>
	<path fill="#754F35" d="M52.5,531.5c0,0-0.1,17.2-5.9,30C42.3,570.9,52.5,531.5,52.5,531.5z"/>
	<path fill="#9B735A" d="M142.2,467.8c0,0-1.6,16-6.3,20.3C131.3,492.4,142.2,467.8,142.2,467.8z"/>
</g>
</svg>
