<?xml version="1.0" encoding="utf-8"?>
<!-- Generator: Adobe Illustrator 18.0.0, SVG Export Plug-In . SVG Version: 6.00 Build 0)  -->
<!DOCTYPE svg PUBLIC "-//W3C//DTD SVG 1.1//EN" "http://www.w3.org/Graphics/SVG/1.1/DTD/svg11.dtd">
<svg version="1.1" id="Layer_1" xmlns="http://www.w3.org/2000/svg" xmlns:xlink="http://www.w3.org/1999/xlink" x="0px" y="0px"
	 viewBox="0 0 201.5 747.7" enable-background="new 0 0 201.5 747.7" xml:space="preserve">
<path fill="#F2CCAA" d="M137,409.5c3.4-47.9-6.2-50.8,14-131.5c8.4-33.4,27.6-80.3,32.2-109.5c5.7-35.9,27.9-56.3,13.7-69.3
	c-14.1-12.9-25.1,42.8-34.4,33.5c-9.3-9.3,31.4-59.2,10-67.5c-25.1-9.8-15.6,51-35.8,50.6c-21.1-0.4,24.3-61.2,6.2-75.1
	c-24.4-18.8-19.2,61.3-34,59.4c-21.3-2.7,26-81.2-3.8-87C81.1,8.7,92.5,82.5,74.7,83.3C49.4,84.5,97.8-0.3,64.5,0
	C23.9,0.3,47,61,35.6,77.9s-9,41.6-7.7,58.5S24.3,314.5,9.3,340.3c-28.4,48.8,17.4,75.1,16.6,102.5C25.6,454.8,9.3,735.4,6.7,743.9
	c-2.5,8.5,149.3,0.3,149.3,0.3S133.6,457.4,137,409.5z"/>
<path fill="#FEEAD9" d="M73.2,10.1c0,0-1,11.6-3.5,14.1c-2.5,2.6-19.5-2.5-19.5-2.5V8.4C50.1,8.4,64.5-2.9,73.2,10.1z"/>
<path fill="#FEEAD9" d="M187.9,102.4l-1.5,7.2c0,0,7.7,4.3,8.9,2.4s3.3-5.9,3.3-5.9S194,97.6,187.9,102.4z"/>
<path fill="#FEEAD9" d="M111.9,21.1c0,0-1.3,8.2-2.8,9.3c-1.6,1.1-12.6-2-12.6-2l0.7-9.3C97.2,19.1,105.1,13,111.9,21.1z"/>
<path fill="#FEEAD9" d="M130.7,51.6l10.3,2.7c0,0,1.8-1.6,3.7-6.5c1.6-4.1-8.4-9.4-13.1-5.4"/>
<path fill="#FEEAD9" d="M175.6,72.9c0,0-2.3,5.4-4.6,5.8c-2.3,0.5-10.1-2.8-10.1-2.8l1.7-7.9C162.6,67.9,174.3,64.8,175.6,72.9z"/>
</svg>
